<mxfile host="app.diagrams.net" agent="Mozilla/5.0 (Windows NT 10.0; Win64; x64) AppleWebKit/537.36 (KHTML, like Gecko) Chrome/131.0.0.0 Safari/537.36 Edg/131.0.0.0" version="26.2.14">
  <diagram name="Page-1" id="NMaMU0YShbcW4j1aVm71">
    <mxGraphModel dx="1802" dy="544" grid="1" gridSize="10" guides="1" tooltips="1" connect="1" arrows="1" fold="1" page="1" pageScale="1" pageWidth="850" pageHeight="1100" math="0" shadow="0">
      <root>
        <mxCell id="0" />
        <mxCell id="1" parent="0" />
        <mxCell id="zbFU5S9o21hl_2Vw8V04-2" value="" style="ellipse;whiteSpace=wrap;html=1;" vertex="1" parent="1">
          <mxGeometry x="410" y="260" width="430" height="250" as="geometry" />
        </mxCell>
        <mxCell id="zbFU5S9o21hl_2Vw8V04-3" value="" style="shape=cylinder3;whiteSpace=wrap;html=1;boundedLbl=1;backgroundOutline=1;size=15;" vertex="1" parent="1">
          <mxGeometry x="160" y="140" width="140" height="250" as="geometry" />
        </mxCell>
        <mxCell id="zbFU5S9o21hl_2Vw8V04-4" value="" style="endArrow=classic;html=1;rounded=0;entryX=0.007;entryY=0.56;entryDx=0;entryDy=0;entryPerimeter=0;" edge="1" parent="1" target="zbFU5S9o21hl_2Vw8V04-3">
          <mxGeometry width="50" height="50" relative="1" as="geometry">
            <mxPoint x="40" y="280" as="sourcePoint" />
            <mxPoint x="90" y="230" as="targetPoint" />
          </mxGeometry>
        </mxCell>
        <mxCell id="zbFU5S9o21hl_2Vw8V04-5" value="" style="endArrow=none;dashed=1;html=1;dashPattern=1 3;strokeWidth=2;rounded=0;entryX=0.167;entryY=0.887;entryDx=0;entryDy=0;entryPerimeter=0;" edge="1" parent="1">
          <mxGeometry width="50" height="50" relative="1" as="geometry">
            <mxPoint x="300" y="218" as="sourcePoint" />
            <mxPoint x="461.6799999999999" y="190" as="targetPoint" />
          </mxGeometry>
        </mxCell>
        <mxCell id="zbFU5S9o21hl_2Vw8V04-7" value="" style="endArrow=none;dashed=1;html=1;dashPattern=1 3;strokeWidth=2;rounded=0;exitX=1.007;exitY=0.467;exitDx=0;exitDy=0;exitPerimeter=0;entryX=0.013;entryY=0.37;entryDx=0;entryDy=0;entryPerimeter=0;" edge="1" parent="1" source="zbFU5S9o21hl_2Vw8V04-3" target="zbFU5S9o21hl_2Vw8V04-2">
          <mxGeometry width="50" height="50" relative="1" as="geometry">
            <mxPoint x="360" y="340" as="sourcePoint" />
            <mxPoint x="410" y="290" as="targetPoint" />
          </mxGeometry>
        </mxCell>
        <mxCell id="zbFU5S9o21hl_2Vw8V04-8" value="&lt;b&gt;DR setup&lt;/b&gt;" style="text;html=1;align=center;verticalAlign=middle;whiteSpace=wrap;rounded=0;" vertex="1" parent="1">
          <mxGeometry x="10" y="10" width="130" height="30" as="geometry" />
        </mxCell>
        <mxCell id="zbFU5S9o21hl_2Vw8V04-9" value="&lt;h1 style=&quot;margin-top: 0px;&quot;&gt;Downstream Cluster&lt;/h1&gt;&lt;p&gt;Master 1, Master2&lt;/p&gt;&lt;p&gt;cluster state recovery&lt;/p&gt;" style="text;html=1;whiteSpace=wrap;overflow=hidden;rounded=0;" vertex="1" parent="1">
          <mxGeometry x="50" y="620" width="280" height="230" as="geometry" />
        </mxCell>
        <mxCell id="zbFU5S9o21hl_2Vw8V04-10" value="LB" style="text;html=1;align=center;verticalAlign=middle;whiteSpace=wrap;rounded=0;" vertex="1" parent="1">
          <mxGeometry x="190" y="90" width="90" height="40" as="geometry" />
        </mxCell>
        <mxCell id="zbFU5S9o21hl_2Vw8V04-12" value="Active" style="text;html=1;align=center;verticalAlign=middle;whiteSpace=wrap;rounded=0;" vertex="1" parent="1">
          <mxGeometry x="530" y="60" width="60" height="30" as="geometry" />
        </mxCell>
        <mxCell id="zbFU5S9o21hl_2Vw8V04-13" value="Passive AZ2" style="text;html=1;align=center;verticalAlign=middle;whiteSpace=wrap;rounded=0;" vertex="1" parent="1">
          <mxGeometry x="410" y="260" width="70" height="30" as="geometry" />
        </mxCell>
        <mxCell id="zbFU5S9o21hl_2Vw8V04-1" value="" style="ellipse;whiteSpace=wrap;html=1;" vertex="1" parent="1">
          <mxGeometry x="420" y="15" width="420" height="230" as="geometry" />
        </mxCell>
        <mxCell id="zbFU5S9o21hl_2Vw8V04-16" value="" style="rounded=0;whiteSpace=wrap;html=1;" vertex="1" parent="1">
          <mxGeometry x="470" y="100" width="80" height="60" as="geometry" />
        </mxCell>
        <mxCell id="zbFU5S9o21hl_2Vw8V04-17" value="" style="rounded=0;whiteSpace=wrap;html=1;" vertex="1" parent="1">
          <mxGeometry x="490" y="350" width="80" height="60" as="geometry" />
        </mxCell>
        <mxCell id="zbFU5S9o21hl_2Vw8V04-18" value="" style="shape=parallelogram;perimeter=parallelogramPerimeter;whiteSpace=wrap;html=1;fixedSize=1;" vertex="1" parent="1">
          <mxGeometry x="630" y="60" width="120" height="60" as="geometry" />
        </mxCell>
        <mxCell id="zbFU5S9o21hl_2Vw8V04-19" value="" style="shape=parallelogram;perimeter=parallelogramPerimeter;whiteSpace=wrap;html=1;fixedSize=1;" vertex="1" parent="1">
          <mxGeometry x="630" y="370" width="120" height="60" as="geometry" />
        </mxCell>
        <mxCell id="zbFU5S9o21hl_2Vw8V04-24" value="" style="shape=flexArrow;endArrow=classic;startArrow=classic;html=1;rounded=0;endWidth=35;endSize=5.02;entryX=0.5;entryY=1;entryDx=0;entryDy=0;" edge="1" parent="1" source="zbFU5S9o21hl_2Vw8V04-19" target="zbFU5S9o21hl_2Vw8V04-18">
          <mxGeometry width="100" height="100" relative="1" as="geometry">
            <mxPoint x="600" y="300" as="sourcePoint" />
            <mxPoint x="700" y="210" as="targetPoint" />
          </mxGeometry>
        </mxCell>
        <mxCell id="zbFU5S9o21hl_2Vw8V04-26" value="" style="endArrow=classic;html=1;rounded=0;entryX=0;entryY=0.5;entryDx=0;entryDy=0;" edge="1" parent="1" target="zbFU5S9o21hl_2Vw8V04-18">
          <mxGeometry width="50" height="50" relative="1" as="geometry">
            <mxPoint x="550" y="130" as="sourcePoint" />
            <mxPoint x="600" y="80" as="targetPoint" />
          </mxGeometry>
        </mxCell>
        <mxCell id="zbFU5S9o21hl_2Vw8V04-27" value="" style="endArrow=classic;html=1;rounded=0;entryX=0;entryY=0.5;entryDx=0;entryDy=0;" edge="1" parent="1" target="zbFU5S9o21hl_2Vw8V04-19">
          <mxGeometry width="50" height="50" relative="1" as="geometry">
            <mxPoint x="570" y="380" as="sourcePoint" />
            <mxPoint x="620" y="330" as="targetPoint" />
          </mxGeometry>
        </mxCell>
        <mxCell id="zbFU5S9o21hl_2Vw8V04-28" value="master1" style="text;html=1;align=center;verticalAlign=middle;whiteSpace=wrap;rounded=0;" vertex="1" parent="1">
          <mxGeometry x="470" y="60" width="60" height="30" as="geometry" />
        </mxCell>
        <mxCell id="zbFU5S9o21hl_2Vw8V04-29" value="master2" style="text;html=1;align=center;verticalAlign=middle;whiteSpace=wrap;rounded=0;" vertex="1" parent="1">
          <mxGeometry x="500" y="320" width="60" height="30" as="geometry" />
        </mxCell>
        <mxCell id="zbFU5S9o21hl_2Vw8V04-30" value="etcd" style="text;html=1;align=center;verticalAlign=middle;whiteSpace=wrap;rounded=0;" vertex="1" parent="1">
          <mxGeometry x="660" y="71" width="60" height="30" as="geometry" />
        </mxCell>
        <mxCell id="zbFU5S9o21hl_2Vw8V04-31" value="etcd" style="text;html=1;align=center;verticalAlign=middle;whiteSpace=wrap;rounded=0;" vertex="1" parent="1">
          <mxGeometry x="660" y="385" width="60" height="30" as="geometry" />
        </mxCell>
        <mxCell id="zbFU5S9o21hl_2Vw8V04-32" value="svc.default.local" style="text;html=1;align=center;verticalAlign=middle;resizable=0;points=[];autosize=1;strokeColor=none;fillColor=none;" vertex="1" parent="1">
          <mxGeometry x="-10" y="290" width="110" height="30" as="geometry" />
        </mxCell>
        <mxCell id="zbFU5S9o21hl_2Vw8V04-33" value="Active AZ1" style="text;html=1;align=center;verticalAlign=middle;whiteSpace=wrap;rounded=0;" vertex="1" parent="1">
          <mxGeometry x="420" y="15" width="60" height="30" as="geometry" />
        </mxCell>
        <mxCell id="zbFU5S9o21hl_2Vw8V04-35" value="&lt;span style=&quot;text-wrap-mode: nowrap;&quot;&gt;master1.svc.default.local&lt;/span&gt;" style="text;html=1;align=center;verticalAlign=middle;whiteSpace=wrap;rounded=0;" vertex="1" parent="1">
          <mxGeometry x="190" y="230" width="80" height="30" as="geometry" />
        </mxCell>
        <mxCell id="zbFU5S9o21hl_2Vw8V04-36" value="&lt;span style=&quot;text-wrap-mode: nowrap;&quot;&gt;master2.svc.default.local&lt;/span&gt;" style="text;html=1;align=center;verticalAlign=middle;whiteSpace=wrap;rounded=0;" vertex="1" parent="1">
          <mxGeometry x="190" y="300" width="80" height="30" as="geometry" />
        </mxCell>
      </root>
    </mxGraphModel>
  </diagram>
</mxfile>
